<?xml version="1.0" encoding="UTF-8"?>
<svg width="16px" height="18px" viewBox="0 0 16 18" version="1.1" xmlns="http://www.w3.org/2000/svg" xmlns:xlink="http://www.w3.org/1999/xlink">
    <!-- Generator: Sketch 50.2 (55047) - http://www.bohemiancoding.com/sketch -->
    <title>Icono / Funcional  / template</title>
    <desc>Created with Sketch.</desc>
    <defs></defs>
    <g id="Symbols" stroke="none" stroke-width="1" fill="none" fill-rule="evenodd">
        <g id="Cartera-/-abierta-/-2-/-incluidos" transform="translate(-90.000000, -10.000000)" fill="#009FDB">
            <g id="Tabs">
                <g id="Group-7" transform="translate(56.000000, 9.000000)">
                    <g id="Icono-/-Funcional--/-descripción-Copy-3" transform="translate(31.000000, 0.000000)">
                        <g id="Group" transform="translate(3.000000, 1.000000)">
                            <path d="M14.7146398,14.3862678 C14.7146398,14.0538045 14.4454293,13.7839791 14.1137234,13.7839791 L10.674078,13.7839791 C10.3423721,13.7839791 10.0731616,14.0538045 10.0731616,14.3862678 C10.0731616,14.7187312 10.3423721,14.9885565 10.674078,14.9885565 L14.1137234,14.9885565 C14.4454293,14.9885565 14.7146398,14.7187312 14.7146398,14.3862678 L14.7146398,14.3862678 Z M16,14.3862678 C16,16.3822526 14.3853376,18 12.3945016,18 C10.4030647,18 8.78900323,16.3822526 8.78900323,14.3862678 C8.78900323,12.3908854 10.4030647,10.7725356 12.3945016,10.7725356 C14.3853376,10.7725356 16,12.3908854 16,14.3862678 L16,14.3862678 Z M8.08292646,15.6986549 C8.24216931,16.2232483 8.49635694,16.704477 8.82205363,17.1290905 L1.08705776,17.1290905 C0.487343198,17.1290905 0.000600916398,16.6532825 0.000600916398,16.0678579 L0,1.06123268 C0,0.476410359 0.487343198,1.77635684e-15 1.08705776,1.77635684e-15 L10.4517389,1.77635684e-15 C10.7515962,1.77635684e-15 11.1373845,0.160208793 11.349508,0.372816703 L13.6005408,2.62899016 C13.8126643,2.84159807 13.9725081,3.22826742 13.9725081,3.52880948 L13.9719072,10.1606103 C13.5248254,9.99196948 13.045895,9.89319414 12.5447307,9.87693234 L12.5453316,3.92330857 L10.2834823,3.92330857 C10.1590926,3.92330857 10.0581387,3.82212407 10.0581387,3.69745031 L10.0581387,1.43043566 L1.72763464,1.43043566 C1.56238263,1.43043566 1.42717644,1.56595061 1.42717644,1.73158 L1.42777736,15.3975105 C1.42777736,15.5631399 1.56298355,15.6986549 1.72823556,15.6986549 L8.08292646,15.6986549 Z" id="remove-from-watchlist-bold"></path>
                        </g>
                    </g>
                </g>
            </g>
        </g>
    </g>
</svg>