<?xml version="1.0" encoding="UTF-8"?>
<svg width="31px" height="31px" viewBox="0 0 31 31" version="1.1" xmlns="http://www.w3.org/2000/svg" xmlns:xlink="http://www.w3.org/1999/xlink">
    <!-- Generator: Sketch 50.2 (55047) - http://www.bohemiancoding.com/sketch -->
    <title>A slim_yellow</title>
    <desc>Created with Sketch.</desc>
    <defs></defs>
    <g id="Symbols" stroke="none" stroke-width="1" fill="none" fill-rule="evenodd">
        <path d="M12.241,17.21 L18.451,17.21 L15.367,8.944 L12.241,17.21 Z M14.79,7.788 L15.967,7.788 L21.727,22.778 L20.528,22.778 L18.815,18.217 L11.877,18.217 L10.164,22.778 L9.029,22.778 L14.79,7.788 Z M16.381,30.717 C16.185,30.717 16.021,30.565 16.008,30.367 C15.994,30.16 16.15,29.981 16.357,29.968 C24.007,29.461 30,23.051 30,15.375 C30,7.311 23.439,0.75 15.375,0.75 C8.635,0.75 2.798,5.312 1.179,11.843 C0.894,12.991 0.75,14.179 0.75,15.375 C0.75,17.155 1.065,18.891 1.686,20.535 C2.707,23.243 4.495,25.571 6.859,27.267 C7.027,27.387 7.066,27.622 6.945,27.79 C6.824,27.958 6.59,27.997 6.422,27.876 C3.938,26.093 2.057,23.647 0.984,20.799 C0.331,19.071 0,17.246 0,15.375 C0,14.119 0.151,12.87 0.451,11.663 C2.153,4.796 8.29,0 15.375,0 C23.853,0 30.75,6.897 30.75,15.375 C30.75,23.444 24.45,30.183 16.407,30.716 C16.398,30.716 16.389,30.717 16.381,30.717 L16.381,30.717 Z" id="A-slim" fill="#FFC623"></path>
    </g>
</svg>