<?xml version="1.0" encoding="UTF-8"?>
<svg width="31px" height="31px" viewBox="0 0 31 31" version="1.1" xmlns="http://www.w3.org/2000/svg" xmlns:xlink="http://www.w3.org/1999/xlink">
    <!-- Generator: Sketch 50.2 (55047) - http://www.bohemiancoding.com/sketch -->
    <title>A slim</title>
    <desc>Created with Sketch.</desc>
    <defs></defs>
    <g id="Symbols" stroke="none" stroke-width="1" fill="none" fill-rule="evenodd">
        <g id="Icono-/-ilustrativo-/-consumos-Copy" transform="translate(-5.000000, -5.000000)" fill="#009FDB">
            <path d="M17.241,22.493 L23.451,22.493 L20.367,14.227 L17.241,22.493 Z M19.79,13.071 L20.967,13.071 L26.727,28.061 L25.528,28.061 L23.815,23.5 L16.877,23.5 L15.164,28.061 L14.029,28.061 L19.79,13.071 Z M21.381,36 C21.185,36 21.021,35.848 21.008,35.65 C20.994,35.443 21.15,35.264 21.357,35.251 C29.007,34.744 35,28.334 35,20.658 C35,12.594 28.439,6.033 20.375,6.033 C13.635,6.033 7.798,10.595 6.179,17.126 C5.894,18.274 5.75,19.462 5.75,20.658 C5.75,22.438 6.065,24.174 6.686,25.818 C7.707,28.526 9.495,30.854 11.859,32.55 C12.027,32.67 12.066,32.905 11.945,33.073 C11.824,33.241 11.59,33.28 11.422,33.159 C8.938,31.376 7.057,28.93 5.984,26.082 C5.331,24.354 5,22.529 5,20.658 C5,19.402 5.151,18.153 5.451,16.946 C7.153,10.079 13.29,5.283 20.375,5.283 C28.853,5.283 35.75,12.18 35.75,20.658 C35.75,28.727 29.45,35.466 21.407,35.999 C21.398,35.999 21.389,36 21.381,36 L21.381,36 Z" id="A-slim"></path>
        </g>
    </g>
</svg>