<?xml version="1.0" encoding="UTF-8"?>
<svg width="17px" height="11px" viewBox="0 0 17 11" version="1.1" xmlns="http://www.w3.org/2000/svg" xmlns:xlink="http://www.w3.org/1999/xlink">
    <!-- Generator: Sketch 50.2 (55047) - http://www.bohemiancoding.com/sketch -->
    <title>Page 1</title>
    <desc>Created with Sketch.</desc>
    <defs></defs>
    <g id="Symbols" stroke="none" stroke-width="1" fill="none" fill-rule="evenodd">
        <g id="Icono-/-Funcional--/-descripción-Copy" transform="translate(-2.000000, -5.000000)" fill="#9B9B9B">
            <g id="Group" transform="translate(2.000000, 5.000000)">
                <path d="M5.82812842,7.64364326 C5.5434513,7.91200867 5.1533382,8.07958796 4.65840934,8.1451884 L4.65840934,8.94372459 L4.01773076,8.94372459 L4.01773076,8.16785037 C3.70142284,8.15294118 3.3944181,8.1046354 3.09671653,8.02352941 C2.79901496,7.94242342 2.54720905,7.83865546 2.34191901,7.71222554 L2.56333455,7.07351586 C3.00616563,7.30669558 3.49055089,7.43849282 4.01773076,7.46890756 L4.01773076,5.7281106 C3.42232762,5.56589862 3.0098869,5.37446462 2.78040861,5.15440499 C2.55155053,4.93374898 2.43681138,4.63079425 2.43681138,4.2455408 C2.43681138,3.85074546 2.57883984,3.52214692 2.86351696,3.26153429 C3.14819409,3.00032529 3.53830719,2.84228788 4.03385626,2.78622933 L4.03385626,2.05687178 L4.67391463,2.05687178 L4.67391463,2.78622933 C5.1694637,2.83214963 5.61725648,2.96394687 6.01791317,3.18162104 L5.80456038,3.81257793 C5.42499088,3.6348604 5.04790223,3.52870697 4.67391463,3.49292491 L4.67391463,5.0971537 C5.24823057,5.25936568 5.6557096,5.45795609 5.89511127,5.69411765 C6.13513316,5.92968284 6.254834,6.23979398 6.254834,6.62504744 C6.254834,7.03534833 6.11280555,7.37527785 5.82812842,7.64364326 L5.82812842,7.64364326 Z M13.887158,6.18373543 C13.9200292,6.47297371 13.8927399,6.74789916 13.7662167,6.97928978 C13.6192266,7.24765519 13.2898942,7.56730821 12.553703,7.56730821 C12.1009486,7.56730821 11.7474279,7.4498238 11.504305,7.21724044 C11.2797884,7.00254812 11.1656695,6.71092437 11.1656695,6.35012198 C11.1656695,6.05611277 11.249398,5.70723773 11.4044509,5.31542423 C11.035425,5.45795609 10.6428311,5.56410951 10.2924115,5.56410951 L10.2917913,5.56410951 C9.83779642,5.56410951 9.56428311,5.38937381 9.41481211,5.24266739 C9.18285297,5.01485497 9.06563298,4.68566007 9.06563298,4.26402819 C9.06563298,3.42851721 9.53885443,2.92935755 10.3314849,2.92935755 C10.390405,2.92935755 10.4561474,2.9394958 10.519409,2.94486311 L7.45680409,0 L1.11638088,0 C0.502371397,0 0,0.483057739 0,1.07346164 L0,9.92653836 C0,10.5169423 0.502371397,11 1.11638088,11 L15.8836191,11 C16.4976286,11 17,10.5169423 17,9.92653836 L17,9.17690431 L13.887158,6.18373543 Z M4.65840934,5.91059908 L4.65840934,7.43849282 C5.19055089,7.34188127 5.45662167,7.08603958 5.45662167,6.67037137 C5.45662167,6.4878829 5.39708136,6.33998374 5.27862094,6.22607753 C5.16016053,6.11217132 4.95300985,6.00661426 4.65840934,5.91059908 L4.65840934,5.91059908 Z M3.23502371,4.1847113 C3.23502371,4.37256709 3.2933236,4.51808078 3.40930317,4.62184874 C3.52466253,4.72621307 3.73305363,4.82342098 4.03385626,4.91466522 L4.03385626,3.50067769 C3.50109449,3.56687449 3.23502371,3.79468691 3.23502371,4.1847113 L3.23502371,4.1847113 Z M12.1338198,6.54811602 C12.1939803,6.65665492 12.4228384,6.67275684 12.553703,6.67275684 C12.6523167,6.67275684 12.8886173,6.66202223 12.9431959,6.56242884 C13.0690989,6.33223096 12.8507844,5.70902684 12.5171105,5.10311738 C12.2200292,5.67085931 11.9955126,6.29943074 12.1338198,6.54811602 L12.1338198,6.54811602 Z M15.0587377,4.21333695 C15.0587377,3.80780699 14.927873,3.80780699 14.7622765,3.80780699 C14.4124772,3.80780699 13.8877782,4.01593928 13.430062,4.249119 C13.8487049,4.45307671 14.3572784,4.65345622 14.7232032,4.65345622 C14.9030646,4.65345622 15.0587377,4.65345622 15.0587377,4.21333695 L15.0587377,4.21333695 Z M11.2884714,1.49747899 C11.4354615,1.22911358 11.7654141,0.910056926 12.500985,0.910056926 C12.9537395,0.910056926 13.3066399,1.02813771 13.5503831,1.26072106 C13.7748997,1.47541339 13.8890186,1.76703714 13.8890186,2.12724316 C13.8890186,2.42125237 13.8046698,2.77072377 13.6496169,3.16253727 C14.019263,3.02000542 14.411857,2.91325562 14.7622765,2.91325562 C15.5307187,2.91325562 15.9890551,3.3992952 15.9890551,4.21333695 C15.9890551,5.04884793 15.5158336,5.54800759 14.7232032,5.54800759 C14.6605618,5.54800759 14.5910981,5.53786934 14.5241153,5.5313093 L17,7.91200867 L17,1.07346164 C17,0.483057739 16.4976286,0 15.8836191,0 L8.77227289,0 L11.1631886,2.29959339 C11.1303174,2.00856601 11.1600876,1.73185145 11.2884714,1.49747899 L11.2884714,1.49747899 Z M12.9208683,1.92984549 C12.8600876,1.82071022 12.6318497,1.80460829 12.500985,1.80460829 C12.4017512,1.80460829 12.1660708,1.81534291 12.1114922,1.9149363 C11.984969,2.14513418 12.2039037,2.76893467 12.5375775,3.37424776 C12.8352791,2.80769856 13.0591755,2.17912713 12.9208683,1.92984549 L12.9208683,1.92984549 Z M10.3314849,3.82390892 C10.6961693,3.82390892 11.2047428,4.02369206 11.6227654,4.22824614 C11.1898577,4.44949851 10.660197,4.66955815 10.2917913,4.66955815 C10.2192266,4.66955815 10.1243342,4.66061263 10.0796789,4.6170778 C10.026961,4.56519382 9.99595038,4.43339658 9.99595038,4.26402819 C9.99595038,3.82390892 10.1510033,3.82390892 10.3314849,3.82390892 L10.3314849,3.82390892 Z" id="Page-1"></path>
            </g>
        </g>
    </g>
</svg>