<?xml version="1.0" encoding="UTF-8"?>
<svg width="20px" height="20px" viewBox="0 0 20 20" version="1.1" xmlns="http://www.w3.org/2000/svg" xmlns:xlink="http://www.w3.org/1999/xlink">
    <!-- Generator: Sketch 50.2 (55047) - http://www.bohemiancoding.com/sketch -->
    <title>Icono / Funcional  / descripción_yellow</title>
    <desc>Created with Sketch.</desc>
    <defs></defs>
    <g id="Icono-/-Funcional--/-descripción" stroke="none" stroke-width="1" fill="none" fill-rule="evenodd">
        <g id="Group" transform="translate(3.000000, 3.000000)" fill="#FFC600">
            <path d="M0,11.953125 L0,13.125 L0,14.1 C0,14.595 0.405,14.999375 0.9,15 L0.9,15 L3.28125,15 L3.28125,11.953125 L0,11.953125 Z M4.21875,15 L14.099375,15 L14.1,15 C14.595,14.999375 15,14.595 15,14.1 L15,13.125 L15,11.953125 L4.21875,11.953125 L4.21875,15 Z M4.21875,11.015625 L15,11.015625 L15,7.96875 L4.21875,7.96875 L4.21875,11.015625 Z M0,11.015625 L3.28125,11.015625 L3.28125,7.96875 L0,7.96875 L0,11.015625 Z M4.21875,7.03125 L15,7.03125 L15,3.984375 L4.21875,3.984375 L4.21875,7.03125 Z M4.21875,3.046875 L15,3.046875 L15,0.9 C15,0.405 14.595,0 14.1,0 L14.099375,0 L4.21875,0 L4.21875,0 L4.21875,3.046875 Z M3.28125,0 L3.28125,0 L0.9,0 L0.9,0 C0.405,0 0,0.405 0,0.9 L0,3.046875 L3.28125,3.046875 L3.28125,0 Z M0,7.03125 L3.28125,7.03125 L3.28125,3.984375 L0,3.984375 L0,7.03125 Z" id="grid-guide-bold"></path>
        </g>
    </g>
</svg>