<?xml version="1.0" encoding="UTF-8"?>
<svg width="27px" height="36px" viewBox="0 0 27 36" version="1.1" xmlns="http://www.w3.org/2000/svg" xmlns:xlink="http://www.w3.org/1999/xlink">
    <!-- Generator: Sketch 50.2 (55047) - http://www.bohemiancoding.com/sketch -->
    <title>caller history slim</title>
    <desc>Created with Sketch.</desc>
    <defs></defs>
    <g id="Symbols" stroke="none" stroke-width="1" fill="none" fill-rule="evenodd">
        <g id="Icono-/-ilustrativo-/-llamadas" transform="translate(-6.000000, -2.000000)" fill="#009FDB">
            <g id="Group" transform="translate(6.000000, 2.000000)">
                <path d="M22.8053124,25.4687291 C22.8053124,25.7244444 22.5997984,25.9319815 22.3465758,25.9319815 L15.992768,25.9319815 C15.7395454,25.9319815 15.5340314,25.7244444 15.5340314,25.4687291 C15.5340314,25.2130138 15.7395454,25.0054767 15.992768,25.0054767 L22.3465758,25.0054767 C22.5997984,25.0054767 22.8053124,25.2130138 22.8053124,25.4687291 M22.8053124,30.7819251 C22.8053124,31.0376404 22.5997984,31.2451775 22.3465758,31.2451775 L15.992768,31.2451775 C15.7395454,31.2451775 15.5340314,31.0376404 15.5340314,30.7819251 C15.5340314,30.5262098 15.7395454,30.3186727 15.992768,30.3186727 L22.3465758,30.3186727 C22.5997984,30.3186727 22.8053124,30.5262098 22.8053124,30.7819251 M22.8053124,28.1247094 C22.8053124,28.3804247 22.5997984,28.5879618 22.3465758,28.5879618 L15.992768,28.5879618 C15.7395454,28.5879618 15.5340314,28.3804247 15.5340314,28.1247094 C15.5340314,27.8689941 15.7395454,27.661457 15.992768,27.661457 L22.3465758,27.661457 C22.5997984,27.661457 22.8053124,27.8689941 22.8053124,28.1247094 M19.2014776,35.0734952 C15.4068084,35.0734952 12.3204285,31.9567332 12.3204285,28.1247094 C12.3204285,24.293921 15.4068084,21.1759236 19.2014776,21.1759236 C22.9961469,21.1759236 26.0825268,24.293921 26.0825268,28.1247094 C26.0825268,31.9567332 22.9961469,35.0734952 19.2014776,35.0734952 M19.2014776,20.2494188 C19.0644683,20.2494188 18.9311289,20.2630076 18.7953428,20.2704196 L20.5104061,17.2697795 C23.7435817,11.6156297 23.2261268,4.74590563 19.280992,0.936118004 C18.7561973,0.429628728 18.6901392,0.383921159 18.6607801,0.364155724 C18.1995969,0.0503794402 17.6711323,-0.0694485105 17.2123957,0.0392613829 C16.8747656,0.117087784 16.5983003,0.317212815 16.436825,0.602576285 L12.0941185,8.19744475 C11.6928768,8.8991177 11.9509926,9.81326908 12.6702916,10.2332846 L13.5779785,10.76201 C15.0410424,11.6156297 15.5450411,13.5118761 14.6997424,14.9893424 L10.361929,22.5767988 C9.51663036,24.0542651 7.63886851,24.5619897 6.17580455,23.7096053 L5.26811772,23.1796446 C4.92559438,22.9807549 4.53046925,22.9189879 4.15369358,23.0054617 C3.76346164,23.0944062 3.44173436,23.3303561 3.24845334,23.6688391 L0.0617630296,29.2439272 C-0.0654599233,29.465053 0.0103845294,29.7479458 0.229354804,29.8764211 C0.301529364,29.9184227 0.381043709,29.9381881 0.45811146,29.9381881 C0.617140151,29.9381881 0.771275651,29.8554203 0.855683187,29.7071796 L4.04359679,24.1320915 C4.10720827,24.0196756 4.21852835,23.9393785 4.35676099,23.908495 C4.50722659,23.8739055 4.66870188,23.901083 4.80938111,23.9826154 L5.71706794,24.5113408 C7.61807245,25.6206759 10.0585512,24.9597691 11.1558492,23.0400512 L15.4948858,15.4525948 C16.5921838,13.5328769 15.9377196,11.0683742 14.0367151,9.9602745 L13.1290282,9.43031377 C12.8476698,9.26601359 12.7400196,8.92135381 12.8892619,8.66069714 L17.2307452,1.06582867 C17.2662208,1.00406169 17.3298323,0.962060138 17.419133,0.941059363 C17.5806083,0.903999172 17.8570736,0.933647324 18.1237524,1.11524226 C18.150665,1.13624304 18.2595385,1.23136419 18.6473238,1.60567212 C22.2903041,5.12515492 22.7404777,11.5180379 19.7164859,16.8065271 L17.6588993,20.406307 C14.0954334,21.1314514 11.4029553,24.3161571 11.4029553,28.1247094 C11.4029553,28.6546702 11.4567804,29.1722775 11.5558675,29.6738254 C8.56123492,32.436045 4.77145888,33.6281478 1.39638074,32.8610018 C1.14927462,32.8054115 0.904615092,32.9610643 0.848343402,33.210603 C0.793295009,33.4601416 0.948653807,33.7084449 1.19575993,33.7652705 C1.93585499,33.9332767 2.69429952,34.0148091 3.45886053,34.0148091 C6.34706622,34.0148091 9.32457264,32.8264123 11.8237697,30.6571558 C12.8709124,33.7590938 15.7786909,36 19.2014776,36 C23.5013688,36 27,32.4681638 27,28.1247094 C27,23.7824904 23.5013688,20.2494188 19.2014776,20.2494188" id="caller-history-slim"></path>
            </g>
        </g>
    </g>
</svg>