<?xml version="1.0" encoding="UTF-8"?>
<svg width="20px" height="20px" viewBox="0 0 20 20" version="1.1" xmlns="http://www.w3.org/2000/svg" xmlns:xlink="http://www.w3.org/1999/xlink">
    <!-- Generator: Sketch 50.2 (55047) - http://www.bohemiancoding.com/sketch -->
    <title>Icono / Funcional  / cerrar_yellow</title>
    <desc>Created with Sketch.</desc>
    <defs></defs>
    <g id="Icono-/-Funcional--/-cerrar" stroke="none" stroke-width="1" fill="none" fill-rule="evenodd">
        <path d="M1.51155778,5.52866055 C2.19484763,4.84828142 3.29946316,4.8490091 3.97984229,5.53084359 L10.2116785,11.7721396 L16.4551576,5.51265163 C17.1369921,4.83081715 18.2416076,4.82863411 18.9234421,5.50901324 C19.6045489,6.19084773 19.6067319,7.29473558 18.9263528,7.97802542 L11.9435527,14.9782898 C11.4945752,15.430178 10.8644059,15.6885038 10.2145892,15.6885038 C9.5640449,15.6892315 8.93460325,15.4316334 8.48417043,14.9812006 L1.51010243,7.99694506 C1.16882135,7.65639165 1,7.21032491 1,6.76353048 C1,6.31600838 1.17100438,5.86994164 1.51155778,5.52866055 Z" id="down-bold" fill="#FFC600" transform="translate(10.217728, 10.344253) scale(1, -1) translate(-10.217728, -10.344253) "></path>
    </g>
</svg>