<?xml version="1.0" encoding="UTF-8"?>
<svg width="17px" height="18px" viewBox="0 0 17 18" version="1.1" xmlns="http://www.w3.org/2000/svg" xmlns:xlink="http://www.w3.org/1999/xlink">
    <!-- Generator: Sketch 50.2 (55047) - http://www.bohemiancoding.com/sketch -->
    <title>Page 1</title>
    <desc>Created with Sketch.</desc>
    <defs></defs>
    <g id="Symbols" stroke="none" stroke-width="1" fill="none" fill-rule="evenodd">
        <g id="Icono-/-Funcional--/-descripción-Copy-3" transform="translate(-2.000000, -1.000000)" fill="#009FDB">
            <path d="M15.8045113,5.54570074 L4.77219114,5.54570074 C4.50600435,5.54570074 4.29113067,5.33018565 4.29113067,5.06464027 C4.29113067,4.79909489 4.50600435,4.5835798 4.77219114,4.5835798 L15.8045113,4.5835798 C16.0700567,4.5835798 16.2855717,4.79909489 16.2855717,5.06464027 C16.2855717,5.33018565 16.0700567,5.54570074 15.8045113,5.54570074 M15.8045113,8.55713929 L4.77219114,8.55713929 C4.50600435,8.55713929 4.29113067,8.3416242 4.29113067,8.07607882 C4.29113067,7.81053344 4.50600435,7.59501835 4.77219114,7.59501835 L15.8045113,7.59501835 C16.0700567,7.59501835 16.2855717,7.81053344 16.2855717,8.07607882 C16.2855717,8.3416242 16.0700567,8.55713929 15.8045113,8.55713929 M15.8045113,11.567295 L4.77219114,11.567295 C4.50600435,11.567295 4.29113067,11.3517799 4.29113067,11.0862345 C4.29113067,10.8206892 4.50600435,10.6051741 4.77219114,10.6051741 L15.8045113,10.6051741 C16.0700567,10.6051741 16.2855717,10.8206892 16.2855717,11.0862345 C16.2855717,11.3517799 16.0700567,11.567295 15.8045113,11.567295 M17.5530057,1 L3.02497951,1 C2.45861098,1 2,1.45861098 2,2.02562092 L2,14.1586074 C2,14.7262588 2.45861098,15.1848698 3.0243381,15.1848698 L8.89391726,15.1848698 C9.43398781,15.2169405 9.84513416,15.3259808 10.3710936,15.9815059 L12.6506788,18.6222072 C12.6506788,18.6222072 12.9470121,19 13.3446887,19 C13.8000926,19 14.1701885,18.6299041 14.1701885,18.1751416 C14.1733956,18.1103588 14.1464562,15.9564908 14.1464562,15.9564908 C14.1464562,15.4504151 14.5627338,15.2118091 14.971956,15.1848698 L17.5530057,15.1848698 C18.1200157,15.1848698 18.5767024,14.7262588 18.5767024,14.1586074 L18.5767024,2.02562092 C18.5767024,1.45861098 18.1180914,1 17.5530057,1" id="Page-1"></path>
        </g>
    </g>
</svg>