<?xml version="1.0" encoding="UTF-8"?>
<svg width="17px" height="18px" viewBox="0 0 17 18" version="1.1" xmlns="http://www.w3.org/2000/svg" xmlns:xlink="http://www.w3.org/1999/xlink">
    <!-- Generator: Sketch 50.2 (55047) - http://www.bohemiancoding.com/sketch -->
    <title>Page 1</title>
    <desc>Created with Sketch.</desc>
    <defs></defs>
    <g id="Symbols" stroke="none" stroke-width="1" fill="none" fill-rule="evenodd">
        <path d="M13.8045113,4.54570074 L2.77219114,4.54570074 C2.50600435,4.54570074 2.29113067,4.33018565 2.29113067,4.06464027 C2.29113067,3.79909489 2.50600435,3.5835798 2.77219114,3.5835798 L13.8045113,3.5835798 C14.0700567,3.5835798 14.2855717,3.79909489 14.2855717,4.06464027 C14.2855717,4.33018565 14.0700567,4.54570074 13.8045113,4.54570074 M13.8045113,7.55713929 L2.77219114,7.55713929 C2.50600435,7.55713929 2.29113067,7.3416242 2.29113067,7.07607882 C2.29113067,6.81053344 2.50600435,6.59501835 2.77219114,6.59501835 L13.8045113,6.59501835 C14.0700567,6.59501835 14.2855717,6.81053344 14.2855717,7.07607882 C14.2855717,7.3416242 14.0700567,7.55713929 13.8045113,7.55713929 M13.8045113,10.567295 L2.77219114,10.567295 C2.50600435,10.567295 2.29113067,10.3517799 2.29113067,10.0862345 C2.29113067,9.82068916 2.50600435,9.60517407 2.77219114,9.60517407 L13.8045113,9.60517407 C14.0700567,9.60517407 14.2855717,9.82068916 14.2855717,10.0862345 C14.2855717,10.3517799 14.0700567,10.567295 13.8045113,10.567295 M15.5530057,1.77635684e-15 L1.02497951,1.77635684e-15 C0.458610982,1.77635684e-15 0,0.458610982 0,1.02562092 L0,13.1586074 C0,13.7262588 0.458610982,14.1848698 1.0243381,14.1848698 L6.89391726,14.1848698 C7.43398781,14.2169405 7.84513416,14.3259808 8.37109361,14.9815059 L10.6506788,17.6222072 C10.6506788,17.6222072 10.9470121,18 11.3446887,18 C11.8000926,18 12.1701885,17.6299041 12.1701885,17.1751416 C12.1733956,17.1103588 12.1464562,14.9564908 12.1464562,14.9564908 C12.1464562,14.4504151 12.5627338,14.2118091 12.971956,14.1848698 L15.5530057,14.1848698 C16.1200157,14.1848698 16.5767024,13.7262588 16.5767024,13.1586074 L16.5767024,1.02562092 C16.5767024,0.458610982 16.1180914,1.77635684e-15 15.5530057,1.77635684e-15" id="Page-1" fill="#FFC600"></path>
    </g>
</svg>