<?xml version="1.0" encoding="UTF-8"?>
<svg width="18px" height="18px" viewBox="0 0 18 18" version="1.1" xmlns="http://www.w3.org/2000/svg" xmlns:xlink="http://www.w3.org/1999/xlink">
    <!-- Generator: Sketch 50.2 (55047) - http://www.bohemiancoding.com/sketch -->
    <title>global network bold</title>
    <desc>Created with Sketch.</desc>
    <defs></defs>
    <g id="Symbols" stroke="none" stroke-width="1" fill="none" fill-rule="evenodd">
        <g id="Icono-/-Funcional--/-descripción-Copy-3" transform="translate(-1.000000, -1.000000)" fill="#9B9B9B">
            <path d="M9.1432,12.8944 C9.1612,12.8968 9.181,12.9016 9.199,12.904 C9.9382,13.0042 11.0398,13.0666 12.2422,13.0252 C12.373,12.613 12.496,12.1894 12.61,11.758 C11.9692,12.0502 11.3878,12.271 10.9414,12.4066 C10.3402,12.589 9.739,12.7492 9.1432,12.8944 M16.6576,13.213 C15.5074,13.6024 14.1814,13.813 12.895,13.8976 C12.1546,16.06 11.1778,17.9578 10.0738,18.9982 C12.577,18.9778 14.836,17.9356 16.4554,16.2676 C16.8286,15.4732 16.8922,14.4142 16.6576,13.213 M14.2246,8.0224 C14.1502,8.6806 14.0452,9.3622 13.9126,10.0516 C14.3068,9.8152 14.6974,9.559 15.0682,9.2866 C14.8138,8.8636 14.5324,8.4412 14.2246,8.0224 M13.6588,11.2378 C13.5214,11.8204 13.3654,12.4012 13.1932,12.9706 C14.3128,12.8794 15.4594,12.688 16.4422,12.3454 C16.2274,11.617 15.9202,10.8556 15.517,10.084 C14.9158,10.5184 14.2786,10.906 13.6588,11.2378 M17.5048,12.8764 C17.6386,13.5088 17.6992,14.1136 17.689,14.6788 C18.1696,13.8904 18.5308,13.021 18.7516,12.097 C18.397,12.3994 17.9758,12.658 17.5048,12.8764 M14.3248,5.6914 C14.7052,5.8738 14.971,6.259 14.971,6.709 C14.971,6.9322 14.9038,7.1392 14.791,7.315 C14.8306,7.3426 14.8672,7.3744 14.8972,7.4152 C15.2194,7.849 15.5086,8.2864 15.7762,8.7244 C16.4944,8.1034 17.077,7.4206 17.3728,6.712 C17.647,6.0532 17.6452,5.4394 17.3722,4.8406 C16.4422,3.5146 15.1642,2.4514 13.6708,1.783 C14.1064,2.6974 14.3452,3.9496 14.3626,5.5066 C14.3638,5.5726 14.3494,5.635 14.3248,5.6914 M11.9314,13.9396 C11.785,13.9426 11.6398,13.9444 11.4964,13.9444 C10.5928,13.9444 9.7576,13.888 9.0784,13.7956 C8.9404,13.777 8.797,13.7506 8.653,13.723 C8.3872,14.1286 7.9306,14.398 7.4104,14.398 C6.8002,14.398 6.2764,14.0278 6.0478,13.501 C5.335,13.5826 4.6726,13.63 4.072,13.63 C3.0664,13.63 2.2288,13.5004 1.5874,13.1986 C2.719,16.1734 5.3812,18.3928 8.6122,18.8932 C8.7844,18.835 8.9614,18.7408 9.1456,18.6064 C10.138,17.8816 11.1412,16.1254 11.9314,13.9396 M16.2358,9.5242 C16.6852,10.3624 17.0368,11.194 17.2792,11.995 C17.6446,11.8102 17.9716,11.5978 18.244,11.3506 C18.6424,10.9882 18.889,10.5802 18.997,10.1164 C18.997,10.0774 19,10.039 19,10 C19,8.8114 18.7672,7.6774 18.3484,6.6382 C18.3082,6.778 18.262,6.9178 18.2032,7.0582 C17.8258,7.9642 17.1016,8.7958 16.2358,9.5242 M5.5648,12.6454 C3.7144,11.737 1.9468,10.4014 1.063,8.9326 C1.0216,9.2824 1,9.6388 1,10 C1,10.45 1.0336,10.8916 1.0972,11.3242 C1.1074,11.3458 1.117,11.368 1.1236,11.392 C1.4296,12.5206 2.7682,12.9202 5.5648,12.6454 M6.262,11.9806 C6.5344,11.6452 6.9454,11.4256 7.4104,11.4256 C7.9264,11.4256 8.3806,11.6902 8.647,12.0904 C9.3172,11.9332 9.9994,11.752 10.6798,11.545 C11.2666,11.3674 12.052,11.047 12.883,10.6222 C13.0924,9.667 13.2538,8.689 13.3534,7.7242 C12.9742,7.5412 12.7102,7.1566 12.7102,6.709 C12.7102,6.5686 12.739,6.436 12.7858,6.3124 C10.8058,4.2982 7.309,2.1946 5.1034,2.4868 L4.6702,2.7472 C3.139,3.874 1.978,5.4736 1.402,7.3306 C1.4464,7.6534 1.5634,7.9912 1.759,8.3434 C2.5504,9.7672 4.3864,11.1142 6.262,11.9806 M13.4104,5.6644 C11.6908,3.919 8.9428,2.1226 6.577,1.6744 C7.6324,1.24 8.788,1 10,1 C10.7518,1 11.4814,1.0936 12.1792,1.267 C13.243,2.0812 13.4476,4.1878 13.4626,5.5168 C13.4632,5.5606 13.4722,5.6014 13.4842,5.6416 C13.4596,5.6494 13.4344,5.6548 13.4104,5.6644" id="global-network-bold"></path>
        </g>
    </g>
</svg>