<?xml version="1.0" encoding="UTF-8"?>
<svg width="18px" height="18px" viewBox="0 0 18 18" version="1.1" xmlns="http://www.w3.org/2000/svg" xmlns:xlink="http://www.w3.org/1999/xlink">
    <!-- Generator: Sketch 50.2 (55047) - http://www.bohemiancoding.com/sketch -->
    <title>global network bold</title>
    <desc>Created with Sketch.</desc>
    <defs></defs>
    <g id="Symbols" stroke="none" stroke-width="1" fill="none" fill-rule="evenodd">
        <path d="M8.1432,11.8944 C8.1612,11.8968 8.181,11.9016 8.199,11.904 C8.9382,12.0042 10.0398,12.0666 11.2422,12.0252 C11.373,11.613 11.496,11.1894 11.61,10.758 C10.9692,11.0502 10.3878,11.271 9.9414,11.4066 C9.3402,11.589 8.739,11.7492 8.1432,11.8944 M15.6576,12.213 C14.5074,12.6024 13.1814,12.813 11.895,12.8976 C11.1546,15.06 10.1778,16.9578 9.0738,17.9982 C11.577,17.9778 13.836,16.9356 15.4554,15.2676 C15.8286,14.4732 15.8922,13.4142 15.6576,12.213 M13.2246,7.0224 C13.1502,7.6806 13.0452,8.3622 12.9126,9.0516 C13.3068,8.8152 13.6974,8.559 14.0682,8.2866 C13.8138,7.8636 13.5324,7.4412 13.2246,7.0224 M12.6588,10.2378 C12.5214,10.8204 12.3654,11.4012 12.1932,11.9706 C13.3128,11.8794 14.4594,11.688 15.4422,11.3454 C15.2274,10.617 14.9202,9.8556 14.517,9.084 C13.9158,9.5184 13.2786,9.906 12.6588,10.2378 M16.5048,11.8764 C16.6386,12.5088 16.6992,13.1136 16.689,13.6788 C17.1696,12.8904 17.5308,12.021 17.7516,11.097 C17.397,11.3994 16.9758,11.658 16.5048,11.8764 M13.3248,4.6914 C13.7052,4.8738 13.971,5.259 13.971,5.709 C13.971,5.9322 13.9038,6.1392 13.791,6.315 C13.8306,6.3426 13.8672,6.3744 13.8972,6.4152 C14.2194,6.849 14.5086,7.2864 14.7762,7.7244 C15.4944,7.1034 16.077,6.4206 16.3728,5.712 C16.647,5.0532 16.6452,4.4394 16.3722,3.8406 C15.4422,2.5146 14.1642,1.4514 12.6708,0.783 C13.1064,1.6974 13.3452,2.9496 13.3626,4.5066 C13.3638,4.5726 13.3494,4.635 13.3248,4.6914 M10.9314,12.9396 C10.785,12.9426 10.6398,12.9444 10.4964,12.9444 C9.5928,12.9444 8.7576,12.888 8.0784,12.7956 C7.9404,12.777 7.797,12.7506 7.653,12.723 C7.3872,13.1286 6.9306,13.398 6.4104,13.398 C5.8002,13.398 5.2764,13.0278 5.0478,12.501 C4.335,12.5826 3.6726,12.63 3.072,12.63 C2.0664,12.63 1.2288,12.5004 0.5874,12.1986 C1.719,15.1734 4.3812,17.3928 7.6122,17.8932 C7.7844,17.835 7.9614,17.7408 8.1456,17.6064 C9.138,16.8816 10.1412,15.1254 10.9314,12.9396 M15.2358,8.5242 C15.6852,9.3624 16.0368,10.194 16.2792,10.995 C16.6446,10.8102 16.9716,10.5978 17.244,10.3506 C17.6424,9.9882 17.889,9.5802 17.997,9.1164 C17.997,9.0774 18,9.039 18,9 C18,7.8114 17.7672,6.6774 17.3484,5.6382 C17.3082,5.778 17.262,5.9178 17.2032,6.0582 C16.8258,6.9642 16.1016,7.7958 15.2358,8.5242 M4.5648,11.6454 C2.7144,10.737 0.9468,9.4014 0.063,7.9326 C0.0216,8.2824 0,8.6388 0,9 C0,9.45 0.0336,9.8916 0.0972,10.3242 C0.1074,10.3458 0.117,10.368 0.1236,10.392 C0.4296,11.5206 1.7682,11.9202 4.5648,11.6454 M5.262,10.9806 C5.5344,10.6452 5.9454,10.4256 6.4104,10.4256 C6.9264,10.4256 7.3806,10.6902 7.647,11.0904 C8.3172,10.9332 8.9994,10.752 9.6798,10.545 C10.2666,10.3674 11.052,10.047 11.883,9.6222 C12.0924,8.667 12.2538,7.689 12.3534,6.7242 C11.9742,6.5412 11.7102,6.1566 11.7102,5.709 C11.7102,5.5686 11.739,5.436 11.7858,5.3124 C9.8058,3.2982 6.309,1.1946 4.1034,1.4868 L3.6702,1.7472 C2.139,2.874 0.978,4.4736 0.402,6.3306 C0.4464,6.6534 0.5634,6.9912 0.759,7.3434 C1.5504,8.7672 3.3864,10.1142 5.262,10.9806 M12.4104,4.6644 C10.6908,2.919 7.9428,1.1226 5.577,0.6744 C6.6324,0.24 7.788,0 9,0 C9.7518,0 10.4814,0.0936 11.1792,0.267 C12.243,1.0812 12.4476,3.1878 12.4626,4.5168 C12.4632,4.5606 12.4722,4.6014 12.4842,4.6416 C12.4596,4.6494 12.4344,4.6548 12.4104,4.6644" id="global-network-bold" fill="#FFC600"></path>
    </g>
</svg>