<?xml version="1.0" encoding="UTF-8"?>
<svg width="12px" height="17px" viewBox="0 0 12 17" version="1.1" xmlns="http://www.w3.org/2000/svg" xmlns:xlink="http://www.w3.org/1999/xlink">
    <!-- Generator: Sketch 50.2 (55047) - http://www.bohemiancoding.com/sketch -->
    <title>phone bold</title>
    <desc>Created with Sketch.</desc>
    <defs></defs>
    <g id="Symbols" stroke="none" stroke-width="1" fill="none" fill-rule="evenodd">
        <g id="Icono-/-Funcional--/-descripción-Copy" transform="translate(-4.000000, -1.000000)" fill="#9B9B9B">
            <path d="M4.97379078,17.7041944 C7.50087185,18.6463509 10.6713321,17.2819959 12.3314093,14.4072579 L14.9721357,9.83333897 C16.5631703,7.07713426 16.2576721,3.81258056 14.3977991,2.03458107 C14.1497345,1.79751447 14.1185737,1.77612959 14.1185737,1.77612959 C13.8173525,1.57327879 13.4648076,1.59221968 13.3340544,1.81828834 C13.2033011,2.04435701 13.0963768,2.22948891 13.0963768,2.22948891 L11.4149147,5.1421087 C11.4149147,5.1421087 11.3024914,5.33701654 11.1650172,5.57469414 C11.028154,5.81237173 11.1198035,6.12459089 11.36909,6.26878604 C11.6183765,6.41237019 11.8224493,6.53029249 11.8224493,6.53029249 C12.6607363,7.01420163 12.9503486,8.09627623 12.4664395,8.93395228 L10.2998463,12.6866921 C9.81593716,13.5249791 8.73447355,13.8152024 7.89618651,13.3306823 C7.89618651,13.3306823 7.69211371,13.213371 7.44282719,13.0691758 C7.19354066,12.9249807 6.88009951,12.9964673 6.7469023,13.2268129 C6.61370509,13.4577695 6.50494773,13.6465674 6.50494773,13.6465674 L4.70128639,16.769981 C4.70128639,16.769981 4.61880188,16.9135651 4.51737648,17.0889211 C4.41656208,17.264277 4.52348645,17.5043986 4.75505408,17.6229319 L4.97379078,17.7041944 Z" id="phone-bold"></path>
        </g>
    </g>
</svg>