<?xml version="1.0" encoding="UTF-8"?>
<svg width="12px" height="17px" viewBox="0 0 12 17" version="1.1" xmlns="http://www.w3.org/2000/svg" xmlns:xlink="http://www.w3.org/1999/xlink">
    <!-- Generator: Sketch 50.2 (55047) - http://www.bohemiancoding.com/sketch -->
    <title>phone bold</title>
    <desc>Created with Sketch.</desc>
    <defs></defs>
    <g id="Symbols" stroke="none" stroke-width="1" fill="none" fill-rule="evenodd">
        <path d="M0.494390813,16.0686456 C3.02147187,17.010802 6.19193213,15.6464471 7.85200932,12.7717091 L10.4927357,8.1977901 C12.0837703,5.44158539 11.7782721,2.17703169 9.9183991,0.399032202 C9.67033457,0.161965604 9.63917376,0.14058073 9.63917376,0.14058073 C9.33795254,-0.0622700708 8.98540762,-0.0433291827 8.85465439,0.182739481 C8.72390117,0.408808145 8.6169768,0.59394005 8.6169768,0.59394005 L6.93551474,3.50655983 C6.93551474,3.50655983 6.8230914,3.70146768 6.68561721,3.93914528 C6.54875402,4.17682287 6.64040348,4.48904203 6.88969001,4.63323717 C7.13897653,4.77682132 7.34304933,4.89474363 7.34304933,4.89474363 C8.18133637,5.37865277 8.47094866,6.46072737 7.98703952,7.29840342 L5.82044633,11.0511432 C5.33653719,11.8894303 4.25507358,12.1796536 3.41678654,11.6951334 C3.41678654,11.6951334 3.21271374,11.5778221 2.96342722,11.433627 C2.71414069,11.2894318 2.40069954,11.3609184 2.26750233,11.591264 C2.13430512,11.8222207 2.02554776,12.0110186 2.02554776,12.0110186 L0.221886424,15.1344321 C0.221886424,15.1344321 0.139401912,15.2780162 0.0379765111,15.4533722 C-0.062837893,15.6287282 0.0440864749,15.8688498 0.275654106,15.9873831 L0.494390813,16.0686456 Z" id="phone-bold" fill="#FFC600"></path>
    </g>
</svg>