<?xml version="1.0" encoding="UTF-8"?>
<svg width="34px" height="26px" viewBox="0 0 34 26" version="1.1" xmlns="http://www.w3.org/2000/svg" xmlns:xlink="http://www.w3.org/1999/xlink">
    <!-- Generator: Sketch 50.2 (55047) - http://www.bohemiancoding.com/sketch -->
    <title>data_visualization_slim_yellow</title>
    <desc>Created with Sketch.</desc>
    <defs></defs>
    <g id="Symbols" stroke="none" stroke-width="1" fill="none" fill-rule="evenodd">
        <g id="data_visualization_slim" fill="#FFC600" fill-rule="nonzero">
            <path d="M7.48766667,17.8275 C7.16216667,17.8275 6.8985,18.0935 6.8985,18.419 C6.8985,18.7445 7.16216667,19.0093333 7.48766667,19.0093333 C7.81433333,19.0093333 8.08033333,18.7445 8.08033333,18.419 C8.08033333,18.0935 7.81433333,17.8275 7.48766667,17.8275 M10.4405,10.7621667 C11.4135,10.7621667 12.2056667,9.96883333 12.2056667,8.99466667 C12.2056667,8.02166667 11.4135,7.2295 10.4405,7.2295 C9.46633333,7.2295 8.67416667,8.02166667 8.67416667,8.99466667 C8.67416667,9.96883333 9.46633333,10.7621667 10.4405,10.7621667 M13.3431667,14.8455 C13.3431667,15.4148333 13.8051667,15.8768333 14.3745,15.8768333 C14.9438333,15.8768333 15.407,15.4148333 15.407,14.8455 C15.407,14.2773333 14.9438333,13.8141667 14.3745,13.8141667 C13.8051667,13.8141667 13.3431667,14.2773333 13.3431667,14.8455 M18.3411667,10.9115 C18.3411667,11.237 18.606,11.5018333 18.9315,11.5018333 C19.257,11.5018333 19.5218333,11.237 19.5218333,10.9115 C19.5218333,10.5848333 19.257,10.32 18.9315,10.32 C18.606,10.32 18.3411667,10.5848333 18.3411667,10.9115 M21.2811667,19.847 C21.2811667,20.5785 21.8761667,21.1723333 22.6076667,21.1723333 C23.338,21.1723333 23.9318333,20.5785 23.9318333,19.847 C23.9318333,19.1166667 23.338,18.5228333 22.6076667,18.5228333 C21.8761667,18.5228333 21.2811667,19.1166667 21.2811667,19.847 M26.0761667,7.3345 C26.6443333,7.3345 27.1075,6.87133333 27.1075,6.302 C27.1075,5.73383333 26.6443333,5.27183333 26.0761667,5.27183333 C25.5068333,5.27183333 25.0448333,5.73383333 25.0448333,6.302 C25.0448333,6.87133333 25.5068333,7.3345 26.0761667,7.3345 M7.511,16.9548333 L9.25866667,11.3455 C8.3965,10.9091667 7.79916667,10.0248333 7.79916667,8.99466667 C7.79916667,7.53866667 8.98333333,6.3545 10.4405,6.3545 C11.8965,6.3545 13.0806667,7.53866667 13.0806667,8.99466667 C13.0806667,9.74483333 12.7621667,10.4203333 12.2593333,10.901 L13.6721667,13.0768333 C13.8903333,12.9905 14.126,12.9391667 14.3745,12.9391667 C14.8178333,12.9391667 15.2203333,13.0978333 15.5458333,13.3521667 L17.5793333,11.4785 C17.507,11.3046667 17.4661667,11.1121667 17.4661667,10.9115 C17.4661667,10.103 18.123,9.445 18.9315,9.445 C19.74,9.445 20.3956667,10.103 20.3956667,10.9115 C20.3956667,11.3443333 20.2043333,11.7293333 19.9045,11.9988333 L22.1865,17.6898333 C22.323,17.663 22.463,17.6478333 22.6076667,17.6478333 C22.6858333,17.6478333 22.7616667,17.6618333 22.8386667,17.6711667 L25.2373333,8.0065 C24.6073333,7.695 24.1698333,7.05216667 24.1698333,6.302 C24.1698333,5.25083333 25.025,4.39683333 26.0761667,4.39683333 C27.1273333,4.39683333 27.9825,5.25083333 27.9825,6.302 C27.9825,7.34966667 27.1343333,8.20133333 26.089,8.20833333 L23.674,17.936 C24.3471667,18.3116667 24.8068333,19.0233333 24.8068333,19.847 C24.8068333,21.0603333 23.821,22.0473333 22.6076667,22.0473333 C21.3931667,22.0473333 20.4061667,21.0603333 20.4061667,19.847 C20.4061667,19.0898333 20.7923333,18.4201667 21.3768333,18.0235 L19.1065,12.3593333 C19.0481667,12.3663333 18.991,12.3768333 18.9315,12.3768333 C18.6433333,12.3768333 18.3761667,12.2893333 18.1486667,12.1458333 L16.0941667,14.0358333 C16.2108333,14.2831667 16.282,14.555 16.282,14.8455 C16.282,15.8978333 15.4268333,16.7518333 14.3745,16.7518333 C13.3233333,16.7518333 12.4681667,15.8978333 12.4681667,14.8455 C12.4681667,14.359 12.656,13.9203333 12.957,13.5831667 L11.5348333,11.3921667 C11.2,11.545 10.8313333,11.6371667 10.4405,11.6371667 C10.3215,11.6371667 10.2095,11.6161667 10.094,11.6021667 L8.34166667,17.2313333 C8.7115,17.4973333 8.95533333,17.929 8.95533333,18.419 C8.95533333,19.2263333 8.29616667,19.8843333 7.48766667,19.8843333 C6.68033333,19.8843333 6.0235,19.2263333 6.0235,18.419 C6.0235,17.6093333 6.68033333,16.9525 7.48766667,16.9525 C7.49583333,16.9525 7.50283333,16.9548333 7.511,16.9548333 M33.9605,3.131 L33.9605,23.3131667 C33.9605,24.7948333 32.7565,26 31.2736667,26 L2.68916667,26 C2.4465,26 2.25166667,25.804 2.25166667,25.5625 C2.25166667,25.321 2.4465,25.125 2.68916667,25.125 L31.2736667,25.125 C32.2735,25.125 33.0855,24.313 33.0855,23.3131667 L33.0855,3.131 C33.0855,2.13 32.2735,1.31566667 31.2736667,1.31566667 L2.68916667,1.31566667 C1.68816667,1.31566667 0.875,2.13 0.875,3.131 L0.875,20.0838333 C0.875,20.3253333 0.679,20.5213333 0.4375,20.5213333 C0.196,20.5213333 0,20.3253333 0,20.0838333 L0,3.131 C0,1.64816667 1.20633333,0.440666667 2.68916667,0.440666667 L31.2736667,0.440666667 C32.7565,0.440666667 33.9605,1.64816667 33.9605,3.131" id="data-visualization-slim"></path>
        </g>
    </g>
</svg>