<?xml version="1.0" encoding="UTF-8"?>
<svg width="39px" height="27px" viewBox="0 0 39 27" version="1.1" xmlns="http://www.w3.org/2000/svg" xmlns:xlink="http://www.w3.org/1999/xlink">
    <!-- Generator: Sketch 50.2 (55047) - http://www.bohemiancoding.com/sketch -->
    <title>group slim</title>
    <desc>Created with Sketch.</desc>
    <defs></defs>
    <g id="Symbols" stroke="none" stroke-width="1" fill="none" fill-rule="evenodd">
        <g id="Icono-/-ilustrativo-/-redes" transform="translate(0.000000, -7.000000)" fill="#009FDB">
            <g id="group-slim" transform="translate(0.000000, 7.000000)">
                <path d="M12.190309,9.64564083 C11.6492281,9.31807272 10.9636032,9.05314713 10.2025084,8.87827013 C10.1948335,8.87566003 10.148784,8.86391456 10.13983,8.8626095 C9.95819052,8.81040742 9.8046924,8.64858094 9.77655108,8.45804332 C9.74840976,8.2675057 9.81492561,8.07305292 9.97354033,7.96864875 L10.072035,7.89295572 C10.7858012,7.39834093 11.3115323,6.6649016 11.5520127,5.82444798 C11.6556239,5.47860914 11.7067899,5.12363495 11.7067899,4.76735569 C11.7067899,2.67796712 10.038777,0.978789152 7.98957714,0.978789152 C5.93909809,0.978789152 4.27236433,2.67796712 4.27236433,4.76735569 C4.27236433,5.11319453 4.32097207,5.46164347 4.41818755,5.80226209 C4.66250539,6.67142686 5.20486541,7.42574703 5.94293554,7.92558202 C5.9518896,7.93080223 5.99665988,7.96212348 6.00305564,7.96734369 C6.15143715,8.08088324 6.23841942,8.28055622 6.20132404,8.46587363 C6.16550781,8.6524961 6.04143017,8.81040742 5.86106987,8.85608424 C5.84444091,8.8599994 5.78432081,8.87304992 5.76769185,8.87566003 C4.21736084,9.22932917 3.0047257,9.97059882 2.64016766,10.8019171 C1.99035895,12.099139 1.46590704,14.7275141 1.211356,16.1813423 C1.13460694,16.6028741 1.07576599,16.9643736 1.03355401,17.2319093 C1.0309957,17.2554002 1.02459995,17.2775861 1.01820419,17.299772 C0.979829665,17.4289722 0.959363249,17.5451218 0.959363249,17.6534411 C0.959363249,19.0785581 3.34881731,20.3875255 6.51727434,20.700738 C6.8524119,20.7333643 7.19522437,20.7555502 7.54443259,20.7646856 C8.06120959,20.7790412 8.59205726,20.7672957 9.13185898,20.7281441 C9.39920154,20.7059582 9.62561126,20.9108514 9.64607768,21.1809972 C9.66398579,21.449838 9.46571739,21.6847474 9.20093313,21.7043232 C8.79288396,21.7356444 8.38483479,21.75 7.98957714,21.75 C7.83096241,21.75 7.67362684,21.7486949 7.51757042,21.7434747 C7.14661663,21.7330343 6.78077944,21.7095434 6.42389631,21.674307 C2.64272596,21.301062 0,19.648866 0,17.6534411 C0,17.4550732 0.030699624,17.2554002 0.0920988719,17.0452868 C0.134310855,16.773836 0.193151801,16.4149466 0.26862171,16.0038552 C0.532126815,14.5017401 1.07832429,11.7663507 1.77418243,10.3790802 C2.18734821,9.43944258 3.23753118,8.64858094 4.71239228,8.15918637 C4.13933263,7.58365835 3.71849195,6.86587964 3.49719883,6.07371295 C3.37312118,5.64565583 3.31172193,5.20585323 3.31172193,4.76735569 C3.31172193,2.13898056 5.41080872,0 7.98957714,0 C10.5670664,0 12.664874,2.13898056 12.664874,4.76735569 C12.664874,5.21890376 12.6009165,5.66914677 12.4717222,6.10372915 C12.2478708,6.88415037 11.8270301,7.59279371 11.2603662,8.16049142 C11.7873764,8.33536841 12.2606623,8.54939698 12.6763864,8.8025771 C12.681503,8.80388216 12.7275524,8.8325933 12.7313899,8.83520341 L12.7863934,8.87043982 C13.0064074,9.02052082 13.0665274,9.32329293 12.9194251,9.54906696 C12.7723227,9.77353594 12.4742805,9.83487339 12.2542666,9.68479239 L12.190309,9.64564083 Z M39,17.6534411 C39,19.648866 36.3574178,21.301062 32.5733426,21.674307 C32.216306,21.7095434 31.8515913,21.7330343 31.4779187,21.7434747 C31.3230749,21.7486949 31.1669514,21.75 31.0082685,21.75 C30.6115612,21.75 30.2033367,21.7356444 29.7963918,21.7043232 C29.5314937,21.6847474 29.3331401,21.449838 29.3536153,21.1809972 C29.3728108,20.9108514 29.6069961,20.7059582 29.8667754,20.7281441 C30.40297,20.7686007 30.9378849,20.7803462 31.4497653,20.7646856 C31.8029627,20.7555502 32.1433631,20.7333643 32.4812041,20.700738 C35.651023,20.3875255 38.0402244,19.0785581 38.0402244,17.6534411 C38.0402244,17.5451218 38.0210289,17.4302772 37.9813582,17.2984669 C37.97368,17.274976 37.9698409,17.2540952 37.964722,17.2306042 C37.9250513,16.9630685 37.8649054,16.6015691 37.789403,16.1839524 C37.5321832,14.726209 37.0062261,12.0952238 36.3702148,10.824103 C35.9939828,9.97059882 34.7808264,9.22932917 33.1939974,8.86913477 C33.0110002,8.82737309 32.8459188,8.67337694 32.8062481,8.48544942 C32.7691368,8.2975219 32.8190451,8.09784891 32.9713295,7.98561442 C32.9751686,7.98300432 33.0353145,7.9399376 33.037874,7.93863255 C33.7967365,7.42313693 34.33805,6.6701218 34.5799134,5.80487219 C34.6771707,5.46164347 34.7257993,5.11188948 34.7257993,4.76735569 C34.7257993,2.67796712 33.0583492,0.978789152 31.0082685,0.978789152 C28.9581878,0.978789152 27.2881782,2.67796712 27.2881782,4.76735569 C27.2881782,5.11188948 27.340646,5.46816873 27.4443017,5.82575303 C27.6848855,6.66229149 28.2108425,7.39703588 28.9236359,7.89426077 C28.9300344,7.89817593 28.9837818,7.93732749 28.9901803,7.9425477 C29.1629399,8.04825693 29.2640363,8.26098044 29.2282047,8.46195848 C29.1910933,8.66424157 29.0452074,8.8299832 28.8468538,8.86391456 C28.0316844,9.05314713 27.3444851,9.31807272 26.8070107,9.64433577 L26.7455851,9.68087724 C26.5254766,9.82312793 26.2260266,9.76440058 26.0827001,9.5425417 C25.9380939,9.32068283 25.9867225,9.02704608 26.2004326,8.87566003 C26.2119499,8.86782971 26.2695364,8.83128825 26.2810537,8.82476299 C26.7251099,8.55592224 27.2088368,8.33536841 27.7386329,8.15918637 C27.1640473,7.5849634 26.7468648,6.87762511 26.5229172,6.10111904 C26.3936674,5.65479119 26.3296823,5.20585323 26.3296823,4.76735569 C26.3296823,2.13898056 28.4283917,0 31.0082685,0 C33.5881453,0 35.6868546,2.13898056 35.6868546,4.76735569 C35.6868546,5.20454818 35.625429,5.64435077 35.5025777,6.075018 C35.2811895,6.86718469 34.8601679,7.5849634 34.2868619,8.16049142 C35.7687555,8.6551062 36.8155507,9.44596784 37.2352926,10.4012661 C37.9173731,11.7624355 38.4676445,14.49913 38.7325425,16.0077703 C38.8080449,16.4162517 38.8669111,16.775141 38.9091412,17.0452868 C38.9692872,17.2593154 39,17.4576833 39,17.6534411 L39,17.6534411 Z M19.8810386,26.25 C15.3083129,26.25 12.2352941,24.5295686 12.2352941,22.9243563 C12.2352941,22.813065 12.2589529,22.6847528 12.3036418,22.5420382 C12.3102137,22.5184706 12.3154713,22.4935937 12.3194144,22.4687169 C12.3627889,22.1859062 12.4298223,21.8009695 12.5099994,21.3610418 C12.7912766,19.8147484 13.3669747,17.0193746 14.0635957,15.6576937 C14.4605383,14.7791477 15.7683457,13.9948719 17.45338,13.6138631 C17.4836107,13.6086258 17.512527,13.6020793 17.5309284,13.5955328 C17.7359715,13.5614907 17.8871251,13.3952086 17.9252421,13.1909564 C17.9620448,12.9880136 17.8582088,12.773287 17.6781388,12.6685423 C17.6715669,12.6619958 17.616363,12.6227165 17.6084767,12.6174793 C16.8303642,12.0872093 16.2559804,11.3029335 15.9931046,10.4112943 C15.8813823,10.0381414 15.824864,9.65975123 15.824864,9.28528898 C15.824864,7.05946443 17.6452794,5.25 19.8810386,5.25 C22.1181121,5.25 23.9385275,7.05946443 23.9385275,9.28528898 C23.9385275,9.65582331 23.8859523,10.0263576 23.7781732,10.3903454 C23.513983,11.3134079 22.9225123,12.1160141 22.1102259,12.6528306 L22.0221625,12.7156774 C21.8670657,12.8308966 21.8171193,13.0312208 21.857865,13.2184519 C21.8972964,13.405683 22.0681657,13.5601814 22.256122,13.60077 C23.9845308,13.9843974 25.305482,14.7739105 25.7155683,15.6851892 C26.4095606,17.0324677 26.9773725,19.8186764 27.2547065,21.3636605 C27.3375124,21.8035881 27.4045457,22.1872155 27.4466059,22.4687169 C27.450549,22.494903 27.4558065,22.5197799 27.4623784,22.5420382 C27.5083817,22.6834435 27.5294118,22.8078278 27.5294118,22.9243563 C27.5294118,24.5295686 24.4563929,26.25 19.8810386,26.25 L19.8810386,26.25 Z M28.0110787,21.0770568 C27.7318819,19.514539 27.1542774,16.6781458 26.4319517,15.2695707 C25.9862614,14.2715092 24.8630705,13.4479161 23.2929086,12.9450368 C23.9102153,12.3472262 24.3648707,11.5954729 24.6018038,10.7654655 C24.7298757,10.3241633 24.7951924,9.8700325 24.7951924,9.4159017 C24.7951924,6.70394549 22.5910744,4.5 19.8810722,4.5 C17.1736315,4.5 14.9682328,6.70394549 14.9682328,9.4159017 C14.9682328,9.87516392 15.0373916,10.3382747 15.1705864,10.7911226 C15.410081,11.6070186 15.8608942,12.3472262 16.4782009,12.9450368 C14.908039,13.4479161 13.7861288,14.2676606 13.3481228,15.2439136 C12.6590958,16.5960431 12.1007022,19.1617538 11.7536272,21.0770568 C11.6780648,21.501682 11.6114674,21.87371 11.5692036,22.1559382 C11.5038869,22.3753065 11.4705882,22.5844119 11.4705882,22.7794059 C11.4705882,25.146274 15.1667443,27 19.8810722,27 C24.5979616,27 28.2941176,25.146274 28.2941176,22.7794059 C28.2941176,22.5779976 28.2620997,22.3740236 28.1980637,22.1559382 C28.1545192,21.87371 28.0904833,21.5003991 28.0110787,21.0770568 L28.0110787,21.0770568 Z"></path>
            </g>
        </g>
    </g>
</svg>