<?xml version="1.0" encoding="UTF-8"?>
<svg width="90px" height="90px" viewBox="0 0 90 90" version="1.1" xmlns="http://www.w3.org/2000/svg" xmlns:xlink="http://www.w3.org/1999/xlink">
    <!-- Generator: Sketch 50.2 (55047) - http://www.bohemiancoding.com/sketch -->
    <title>approval slim</title>
    <desc>Created with Sketch.</desc>
    <defs></defs>
    <g id="Login" stroke="none" stroke-width="1" fill="none" fill-rule="evenodd">
        <g id="04_-alerta-recuperar" transform="translate(-143.000000, -261.000000)" fill="#4CA90C">
            <g id="approval-slim" transform="translate(143.000000, 261.000000)">
                <path d="M90,44.9985366 C90,39.7391955 89.0985659,34.5881435 87.324965,29.6829371 C87.1200937,29.1151507 86.4908458,28.8195506 85.9201327,29.0273487 C85.3494195,29.2322201 85.0567461,29.8614679 85.2616175,30.4321811 C86.9503431,35.0944685 87.8049494,39.9938213 87.8049494,44.9985366 C87.8049494,68.5997203 68.6026471,87.8049494 45.0014634,87.8049494 C21.3973529,87.8049494 2.19505057,68.5997203 2.19505057,44.9985366 C2.19505057,21.3973529 21.3973529,2.19505057 45.0014634,2.19505057 C52.37976,2.19505057 59.655621,4.10328119 66.0359013,7.71194433 C66.5627134,8.0104712 67.2329355,7.82608696 67.5343891,7.29634809 C67.832916,6.76953595 67.645605,6.09931384 67.1187929,5.80078697 C60.4048649,2.00481285 52.7602354,1.42108547e-14 45.0014634,1.42108547e-14 C20.1886118,1.42108547e-14 0,20.185685 0,44.9985366 C0,69.8113882 20.1886118,90 45.0014634,90 C69.8113882,90 90,69.8113882 90,44.9985366 M43.9302787,70.2064973 C43.1664011,70.2064973 42.4288641,69.8260219 41.890345,69.1499463 L20.229586,41.9313193 C19.8520373,41.4571884 19.9310592,40.7664791 20.4051901,40.3889304 C20.879321,40.0113817 21.5700302,40.0904036 21.9475789,40.5645345 L43.6083379,67.7860883 C43.7458944,67.9587656 43.8658905,68.0055933 43.9390589,68.0114468 C44.003447,68.00852 44.1234431,67.9353517 44.2375858,67.7480407 L84.717245,2.52869825 C85.0391857,2.01066632 85.7152613,1.85554941 86.2303665,2.17456343 C86.7454717,2.49357744 86.9035153,3.16965302 86.5845013,3.68475822 L46.1048421,68.9041007 C45.6248577,69.6826119 44.8814673,70.1538161 44.0678352,70.2035706 C44.0210074,70.2064973 43.9771064,70.2064973 43.9302787,70.2064973"></path>
            </g>
        </g>
    </g>
</svg>