<?xml version="1.0" encoding="UTF-8"?>
<svg width="37px" height="52px" viewBox="0 0 37 52" version="1.1" xmlns="http://www.w3.org/2000/svg" xmlns:xlink="http://www.w3.org/1999/xlink">
    <!-- Generator: Sketch 50.2 (55047) - http://www.bohemiancoding.com/sketch -->
    <title>Page 1</title>
    <desc>Created with Sketch.</desc>
    <defs></defs>
    <g id="Symbols" stroke="none" stroke-width="1" fill="none" fill-rule="evenodd">
        <g id="secure-slim" transform="translate(0.000000, -5.000000)" fill="#FFC600">
            <path d="M29.0592277,40.7559749 L7.61847323,40.7559749 C7.26692977,40.7559749 6.98161914,40.4706643 6.98161914,40.1191208 C6.98161914,39.7675774 7.26692977,39.4822667 7.61847323,39.4822667 L29.0592277,39.4822667 C29.4107712,39.4822667 29.6960818,39.7675774 29.6960818,40.1191208 C29.6960818,40.4706643 29.4107712,40.7559749 29.0592277,40.7559749 L29.0592277,40.7559749 Z M29.0592277,48.8635521 L7.61847323,48.8635521 C7.26692977,48.8635521 6.98161914,48.5782415 6.98161914,48.226698 C6.98161914,47.8751546 7.26692977,47.5898439 7.61847323,47.5898439 L29.0592277,47.5898439 C29.4107712,47.5898439 29.6960818,47.8751546 29.6960818,48.226698 C29.6960818,48.5782415 29.4107712,48.8635521 29.0592277,48.8635521 L29.0592277,48.8635521 Z M35.3649324,53.3147376 C35.3530444,54.644489 34.2168967,55.7262918 32.8328005,55.7262918 L3.80414178,55.7262918 C2.42344211,55.7262918 1.28899268,54.644489 1.27540646,53.3147376 L1.27370819,53.1364185 L1.27370819,35.231478 L1.27540646,35.0242881 C1.29069096,33.6928385 2.42514039,32.6093374 3.80414178,32.6093374 L27.2590535,32.6093374 C27.2641483,32.6093374 27.2675449,32.6110356 27.2726397,32.6110356 L27.2845276,32.6093374 L32.836197,32.6093374 C34.2168967,32.6093374 35.3513461,33.6911402 35.3666306,35.0208915 L35.3734238,52.6846767 L35.3649324,53.3147376 Z M18.3380013,7.19970819 C25.922509,7.19970819 32.0940497,13.0995245 32.0940497,20.3494715 L32.0940497,31.3356292 L27.9094938,31.3356292 L27.9094938,20.3494715 C27.9094938,15.2325611 23.6162481,11.0700828 18.3413979,11.0700828 C13.0597546,11.0700828 8.7648106,15.2325611 8.7648106,20.3494715 L8.7648106,24.8057519 C8.7648106,25.1572953 9.05012123,25.442606 9.40166469,25.442606 C9.75320815,25.442606 10.0385188,25.1572953 10.0385188,24.8057519 L10.0385188,20.3494715 C10.0385188,15.9356481 13.7628415,12.343791 18.3413979,12.343791 C22.9148594,12.343791 26.6357856,15.9356481 26.6357856,20.3494715 L26.6357856,31.3356292 L4.58195292,31.3356292 L4.58195292,20.3494715 C4.58195292,13.0995245 10.7534936,7.19970819 18.3380013,7.19970819 L18.3380013,7.19970819 Z M36.6403388,35.0107019 C36.6216578,33.1612776 35.1934063,31.6430174 33.3677579,31.3882758 L33.3677579,20.3494715 C33.3677579,12.3964376 26.6255959,5.926 18.3380013,5.926 C10.0504067,5.926 3.30824473,12.3964376 3.30824473,20.3494715 L3.30824473,31.3797844 C1.67959653,31.5903708 0.361733125,32.8114324 0.0645345481,34.3806409 L0,34.3806409 L0,53.3215308 L0.00169827758,53.9583849 L0.0628362705,53.9583849 C0.388905566,55.6838349 1.94792439,57 3.80414178,57 L32.8328005,57 C34.6907162,57 36.2531315,55.6838349 36.5775026,53.9583849 L36.6471319,53.9583849 L36.6403388,35.0107019 Z" id="Page-1"></path>
        </g>
    </g>
</svg>