<?xml version="1.0" encoding="UTF-8"?>
<svg width="16px" height="18px" viewBox="0 0 16 18" version="1.1" xmlns="http://www.w3.org/2000/svg" xmlns:xlink="http://www.w3.org/1999/xlink">
    <!-- Generator: Sketch 50.2 (55047) - http://www.bohemiancoding.com/sketch -->
    <title>add file bold_gray</title>
    <desc>Created with Sketch.</desc>
    <defs></defs>
    <g id="Symbols" stroke="none" stroke-width="1" fill="none" fill-rule="evenodd">
        <g id="Icono-/-Funcional--/-descripción-Copy" transform="translate(-3.000000, -1.000000)" fill="#9B9B9B">
            <path d="M17.7146398,15.3534891 C17.7146398,15.0217832 17.4454293,14.7525727 17.1137234,14.7525727 L15.995418,14.7525727 L15.995418,13.6336663 C15.995418,13.3019605 15.7262075,13.0327499 15.3945016,13.0327499 C15.0621948,13.0327499 14.7935852,13.3019605 14.7935852,13.6336663 L14.7935852,14.7525727 L13.674078,14.7525727 C13.3423721,14.7525727 13.0731616,15.0217832 13.0731616,15.3534891 C13.0731616,15.6851949 13.3423721,15.9544055 13.674078,15.9544055 L14.7935852,15.9544055 L14.7935852,17.0733118 C14.7935852,17.4056186 15.0621948,17.6742282 15.3945016,17.6742282 C15.7262075,17.6742282 15.995418,17.4056186 15.995418,17.0733118 L15.995418,15.9544055 L17.1137234,15.9544055 C17.4454293,15.9544055 17.7146398,15.6851949 17.7146398,15.3534891 L17.7146398,15.3534891 Z M19,15.3534891 C19,17.344926 17.3853376,18.9589875 15.3945016,18.9589875 C13.4030647,18.9589875 11.7890032,17.344926 11.7890032,15.3534891 C11.7890032,13.362653 13.4030647,11.7479907 15.3945016,11.7479907 C17.3853376,11.7479907 19,13.362653 19,15.3534891 L19,15.3534891 Z M11.0829265,16.6634868 C11.2421693,17.1862841 11.4963569,17.6664163 11.8220536,18.0906633 L4.08705776,18.0906633 C3.4873432,18.0906633 3.00060092,17.6153384 3.00060092,17.0312477 L3,2.05941561 C3,1.47532487 3.4873432,1 4.08705776,1 L13.4517389,1 C13.7515962,1 14.1373845,1.15984376 14.349508,1.37196725 L16.6005408,3.62300008 C16.8126643,3.83512356 16.9725081,4.22091189 16.9725081,4.52076917 L16.9719072,11.1374596 C16.5248254,10.969203 16.045895,10.8706527 15.5447307,10.854428 L15.5453316,4.91436941 L13.2834823,4.91436941 C13.1590926,4.91436941 13.0581387,4.81341546 13.0581387,4.68902576 L13.0581387,2.42717644 L4.72763464,2.42717644 C4.56238263,2.42717644 4.42717644,2.56238263 4.42717644,2.72763464 L4.42777736,16.3630286 C4.42777736,16.5282806 4.56298355,16.6634868 4.72823556,16.6634868 L11.0829265,16.6634868 Z" id="add-file-bold"></path>
        </g>
    </g>
</svg>