<?xml version="1.0" encoding="UTF-8"?>
<svg width="40px" height="40px" viewBox="0 0 40 40" version="1.1" xmlns="http://www.w3.org/2000/svg" xmlns:xlink="http://www.w3.org/1999/xlink">
    <!-- Generator: Sketch 50.2 (55047) - http://www.bohemiancoding.com/sketch -->
    <title>Icono / ilustrativo / internet</title>
    <desc>Created with Sketch.</desc>
    <defs></defs>
    <g id="Icono-/-ilustrativo-/-internet" stroke="none" stroke-width="1" fill="none" fill-rule="evenodd">
        <g id="Group" transform="translate(4.000000, 4.000000)" fill="#009FDB">
            <path d="M15.3753171,32.1500488 C15.5931707,32.0309268 15.8099512,31.893561 16.0278049,31.7325854 C17.9702439,30.3009756 19.6948293,27.3433171 21.0244878,23.8673171 C21.6801951,23.9070244 22.3240976,23.9284878 22.9497561,23.9284878 C24.2965854,23.9284878 25.5672195,23.8361951 26.7294634,23.6494634 C27.3154146,23.5550244 27.8595122,23.4369756 28.3660488,23.2996098 C28.4347317,25.5800976 27.8165854,27.4774634 26.4429268,28.6343415 C23.7331707,30.8579512 20.2700488,32.195122 16.5,32.195122 C16.1211707,32.195122 15.7477073,32.176878 15.3753171,32.1500488 M2.93297561,24.376 C3.15726829,24.4081951 3.40087805,24.4242927 3.66165854,24.4242927 C5.5515122,24.4242927 8.28058537,23.6376585 10.2230244,22.9862439 C10.660878,23.7374634 11.4657561,24.250439 12.3972683,24.250439 C13.3545366,24.250439 14.1787317,23.7074146 14.6058537,22.9207805 C14.7582439,22.955122 14.909561,22.9905366 15.0630244,23.0238049 C16.8165854,23.408 18.5443902,23.6569756 20.2078049,23.7964878 C18.8867317,27.1522927 17.2340488,29.8427317 15.5502439,31.0854634 C14.6874146,31.7229268 13.8417561,31.9622439 13.036878,31.8044878 C8.73239024,30.831122 5.09541463,28.0859512 2.93297561,24.376 M0.847804878,15.4021463 C1.74390244,17.0226341 3.74858537,18.6849756 6.66117073,20.1423415 C6.71912195,20.1713171 6.78029268,20.1852683 6.84146341,20.1852683 C6.9884878,20.1852683 7.13014634,20.1037073 7.20097561,19.9620488 C7.30078049,19.7635122 7.22029268,19.5220488 7.0217561,19.4222439 C3.16478049,17.4937561 0.950829268,15.1896585 1.1364878,13.3416585 C1.892,9.69717073 3.92995122,6.38643902 6.9155122,4.07912195 C7.26214634,4.49336585 7.77619512,4.76273171 8.35678049,4.76273171 C9.28936585,4.76273171 10.0609756,4.08234146 10.2133659,3.1937561 C13.7322927,3.24097561 18.1065366,5.65239024 21.7896585,9.58556098 C21.597561,9.8817561 21.4827317,10.2337561 21.4827317,10.6125854 C21.4827317,11.4829268 22.0772683,12.2094634 22.8789268,12.4273171 C22.754439,13.8396098 22.5462439,15.2669268 22.2693659,16.6727805 C20.8399024,17.4798049 19.3052683,18.2803902 17.7148293,19.0412683 C16.6641951,19.5435122 15.6081951,20.0167805 14.5672195,20.46 C14.1282927,19.7109268 13.3266341,19.2022439 12.3972683,19.2022439 C11.0053659,19.2022439 9.87317073,20.334439 9.87317073,21.7263415 C9.87317073,21.9012683 9.89141463,22.0719024 9.92468293,22.2360976 C4.84643902,23.936 2.61209756,23.8007805 2.34595122,23.2781463 C1.35863415,21.2240976 0.804878049,18.9253659 0.804878049,16.5 C0.804878049,16.1319024 0.82204878,15.7670244 0.847804878,15.4021463 M8.35678049,1.79219512 C8.95453659,1.79219512 9.44068293,2.27834146 9.44068293,2.87502439 C9.44068293,3.47170732 8.95453659,3.95785366 8.35678049,3.95785366 C7.76009756,3.95785366 7.27502439,3.47170732 7.27502439,2.87502439 C7.27502439,2.27834146 7.76009756,1.79219512 8.35678049,1.79219512 M19.0122927,1.00770732 C22.2253659,1.53892683 22.8950244,5.96360976 22.9937561,8.7635122 C22.7651707,8.80965854 22.5537561,8.90087805 22.3638049,9.02214634 C18.5218537,4.92478049 13.8943415,2.41356098 10.1736585,2.38887805 C10.1532683,2.3137561 10.1339512,2.23970732 10.107122,2.16887805 C12.1203902,1.26741463 14.268878,0.804878049 16.5,0.804878049 C17.3553171,0.804878049 18.1934634,0.875707317 19.0122927,1.00770732 M30.6637073,9.7422439 C30.793561,10.0652683 30.3685854,11.0912195 27.9571707,12.9767805 C27.4474146,13.376 26.8689756,13.7913171 26.2529756,14.212 C25.8022439,13.4403902 25.2914146,12.6698537 24.7376585,11.9057561 C25.0574634,11.5677073 25.2570732,11.1137561 25.2570732,10.6125854 C25.2570732,9.71970732 24.6324878,8.97385366 23.797561,8.77853659 C23.6902439,5.54936585 22.9787317,3.14546341 21.7392195,1.70634146 C25.6680976,3.10253659 28.8790244,6.01619512 30.6637073,9.7422439 M23.6838049,12.4680976 C23.8190244,12.445561 23.9499512,12.4112195 24.0733659,12.3607805 C24.6260488,13.1216585 25.1315122,13.891122 25.5790244,14.6638049 C24.8310244,15.1542439 24.0261463,15.6532683 23.1719024,16.1533659 C23.4058537,14.8902439 23.5786341,13.6496585 23.6838049,12.4680976 M23.3693659,9.5297561 C23.9681951,9.5297561 24.4521951,10.0159024 24.4521951,10.6125854 C24.4521951,11.2092683 23.9681951,11.6954146 23.3693659,11.6954146 C22.7726829,11.6954146 22.2876098,11.2092683 22.2876098,10.6125854 C22.2876098,10.0159024 22.7726829,9.5297561 23.3693659,9.5297561 M22.9647805,17.204 C24.0379512,16.5922927 25.0467317,15.9773659 25.9685854,15.3742439 C27.3036098,17.8489756 28.0977561,20.3054634 28.3123902,22.477561 C27.7919024,22.6278049 27.2209756,22.7555122 26.6006829,22.8553171 C25.0220488,23.1085854 23.2309268,23.181561 21.3163902,23.0785366 C21.9903415,21.195122 22.5494634,19.1882927 22.9647805,17.204 M14.865561,21.208 C15.9237073,20.7583415 16.9958049,20.277561 18.0614634,19.7678049 C19.441561,19.1078049 20.7819512,18.4166829 22.0493659,17.7180488 C21.6372683,19.5681951 21.1124878,21.3625366 20.504,23.018439 C18.8083902,22.8875122 17.0365854,22.6310244 15.2347317,22.2382439 C15.1145366,22.2114146 14.9964878,22.1845854 14.8773659,22.1566829 C14.9009756,22.0160976 14.9202927,21.8733659 14.9202927,21.7263415 C14.9202927,21.5481951 14.9009756,21.3754146 14.865561,21.208 M10.6780488,21.7263415 C10.6780488,20.7776585 11.4485854,20.007122 12.3972683,20.007122 C13.344878,20.007122 14.1154146,20.7776585 14.1154146,21.7263415 C14.1154146,22.6739512 13.344878,23.445561 12.3972683,23.445561 C11.4485854,23.445561 10.6780488,22.6739512 10.6780488,21.7263415 M31.8517073,19.762439 C31.8463415,19.7774634 31.8356098,19.7903415 31.8323902,19.8053659 C31.6156098,20.7980488 30.6583415,21.6297561 29.1194146,22.2124878 C28.8682927,19.9620488 28.0312195,17.455122 26.6457561,14.9213659 C27.3025366,14.4749268 27.9110244,14.0349268 28.4529756,13.6110244 C29.8105366,12.5496585 30.7087805,11.6492683 31.1573659,10.8948293 C31.824878,12.6376585 32.195122,14.5253659 32.195122,16.5 C32.195122,17.6182439 32.0749268,18.7096585 31.8517073,19.762439 M28.8908293,26.1156098 C29.1451707,25.1862439 29.247122,24.1527805 29.1934634,23.0420488 C29.9854634,22.7630244 30.655122,22.4228293 31.1874146,22.0268293 C30.6272195,23.508878 29.8491707,24.8846829 28.8908293,26.1156098 M33,16.5 C33,13.9630244 32.4237073,11.559122 31.3966829,9.41063415 C31.3923902,9.40097561 31.3902439,9.3902439 31.3859512,9.38058537 C31.3838049,9.37736585 31.3816585,9.37629268 31.3795122,9.37307317 C29.0807805,4.5942439 24.5487805,1.08819512 19.1432195,0.213560976 C19.1389268,0.213560976 19.1324878,0.211414634 19.1260488,0.210341463 L19.1239024,0.210341463 C18.2675122,0.0729756098 17.392878,0 16.5,0 C14.1025366,0 11.7973659,0.506536585 9.63814634,1.49707317 C9.3022439,1.18370732 8.85365854,0.987317073 8.35678049,0.987317073 C7.31687805,0.987317073 6.47014634,1.83404878 6.47014634,2.87502439 C6.47014634,3.04136585 6.49804878,3.19912195 6.53882927,3.35258537 C3.42878049,5.7124878 1.276,9.1004878 0.417463415,12.8469268 C0.404585366,12.8737561 0.387414634,12.898439 0.38097561,12.929561 C0.360585366,13.0229268 0.352,13.1162927 0.341268293,13.2096585 C0.121268293,14.2849756 0,15.3860488 0,16.5 C0,19.0434146 0.579512195,21.4548293 1.61190244,23.6097561 C1.61404878,23.6119024 1.61297561,23.615122 1.61512195,23.6183415 C1.61726829,23.6226341 1.6204878,23.6258537 1.62156098,23.6301463 C3.76360976,28.0805854 7.84917073,31.4245854 12.7653659,32.5685854 C12.7739512,32.5707317 12.7814634,32.5771707 12.7900488,32.5793171 C12.816878,32.5846829 12.8447805,32.5868293 12.8726829,32.5932683 C14.0413659,32.8561951 15.2529756,33 16.5,33 C20.4106341,33 24.0068293,31.629561 26.8378537,29.3469268 C26.8550244,29.3361951 26.8754146,29.3308293 26.8893659,29.316878 C26.915122,29.297561 26.934439,29.2718049 26.959122,29.2514146 C30.6443902,26.2229268 33,21.6308293 33,16.5" id="global-network-slim"></path>
        </g>
    </g>
</svg>