<?xml version="1.0" encoding="UTF-8"?>
<svg width="28px" height="31px" viewBox="0 0 28 31" version="1.1" xmlns="http://www.w3.org/2000/svg" xmlns:xlink="http://www.w3.org/1999/xlink">
    <!-- Generator: Sketch 50.2 (55047) - http://www.bohemiancoding.com/sketch -->
    <title>messaging slim</title>
    <desc>Created with Sketch.</desc>
    <defs></defs>
    <g id="Symbols" stroke="none" stroke-width="1" fill="none" fill-rule="evenodd">
        <g id="Icono-/-ilustrativo-/-mensajes" transform="translate(-6.000000, -6.000000)" fill="#009FDB">
            <g id="messaging-slim" transform="translate(6.000000, 6.000000)">
                <path d="M27.2103779,22.4756186 L27.2103779,2.12383299 C27.2103779,1.39759831 26.6344802,0.806927429 25.9238203,0.806927429 L2.07828539,0.806927429 C1.36867832,0.806927429 0.790674939,1.39759831 0.790674939,2.12383299 L0.789622109,22.4756186 C0.789622109,23.2018533 1.36867832,23.7936001 2.07723256,23.7936001 L11.7106223,23.7936001 C12.7602933,23.8570784 13.5330701,24.1206747 14.4437676,25.2804984 L18.1760481,29.699233 C18.2918594,29.8466317 18.6445572,30.1930726 19.0162061,30.1930726 C19.5468321,30.1930726 19.9774394,29.7530281 19.9774394,29.2129247 C19.9805979,29.0709055 19.9553299,26.9147954 19.9384847,25.4967549 C19.9384847,24.3993336 20.8039105,23.8516989 21.6619665,23.7936001 L25.9238203,23.7936001 C26.6344802,23.7936001 27.2103779,23.2018533 27.2103779,22.4756186 M28,2.12383299 L28,22.4756186 C28,23.6462014 27.0682459,24.6005275 25.9238203,24.6005275 L21.6882873,24.6005275 C21.5493138,24.6102107 20.7281068,24.7048902 20.7281068,25.4913754 C20.7407407,26.5769618 20.7712728,29.1236248 20.7660086,29.232291 C20.7670615,30.1984521 19.9816507,31 19.0162061,31 C18.1813123,31 17.5917278,30.2447159 17.5675127,30.2113629 L13.8373378,25.7969319 C13.021395,24.7565335 12.4318105,24.6446396 11.68746,24.5994516 L2.07723256,24.6005275 C0.931754089,24.6005275 0,23.6462014 0,22.4756186 L0.00105282948,2.12383299 C0.00105282948,0.952174366 0.932806919,0 2.07828539,0 L25.9238203,0 C27.0682459,0 28,0.952174366 28,2.12383299 M23.5812747,16.3806268 L4.41977815,16.3806268 C4.20184245,16.3806268 4.0249671,16.5613785 4.0249671,16.7840905 C4.0249671,17.0068025 4.20184245,17.1875542 4.41977815,17.1875542 L23.5812747,17.1875542 C23.7981575,17.1875542 23.9760857,17.0068025 23.9760857,16.7840905 C23.9760857,16.5613785 23.7981575,16.3806268 23.5812747,16.3806268 M23.5812747,7.35595044 L4.41977815,7.35595044 C4.20184245,7.35595044 4.0249671,7.53670218 4.0249671,7.75941415 C4.0249671,7.98212612 4.20184245,8.16287787 4.41977815,8.16287787 L23.5812747,8.16287787 C23.7981575,8.16287787 23.9760857,7.98212612 23.9760857,7.75941415 C23.9760857,7.53670218 23.7981575,7.35595044 23.5812747,7.35595044 M23.9760857,12.2728282 C23.9760857,12.4955402 23.7981575,12.676292 23.5812747,12.676292 L4.41977815,12.676292 C4.20184245,12.676292 4.0249671,12.4955402 4.0249671,12.2728282 C4.0249671,12.0501163 4.20184245,11.8693645 4.41977815,11.8693645 L23.5812747,11.8693645 C23.7981575,11.8693645 23.9760857,12.0501163 23.9760857,12.2728282" id="Page-1"></path>
            </g>
        </g>
    </g>
</svg>