<?xml version="1.0" encoding="UTF-8"?>
<svg width="31px" height="31px" viewBox="0 0 31 31" version="1.1" xmlns="http://www.w3.org/2000/svg" xmlns:xlink="http://www.w3.org/1999/xlink">
    <!-- Generator: Sketch 50.2 (55047) - http://www.bohemiancoding.com/sketch -->
    <title>money_slim_yellow</title>
    <desc>Created with Sketch.</desc>
    <defs></defs>
    <g id="Symbols" stroke="none" stroke-width="1" fill="none" fill-rule="evenodd">
        <g id="money_slim" fill="#FFC600" fill-rule="nonzero">
            <path d="M18.977,19 C18.977,18.229 18.747,17.626 18.287,17.193 C17.827,16.76 17.021,16.375 15.871,16.036 L15.871,21.944 C16.859,21.849 17.624,21.545 18.165,21.03 C18.706,20.516 18.977,19.839 18.977,19 Z M12.034,12.037 C12.034,12.768 12.25,13.336 12.684,13.742 C13.117,14.148 13.895,14.507 15.018,14.818 L15.018,9.418 C14.084,9.486 13.354,9.753 12.826,10.22 C12.298,10.687 12.034,11.293 12.034,12.037 Z M14.998,24.989 L14.998,22.898 C14.267,22.884 13.513,22.769 12.735,22.553 C11.956,22.336 11.29,22.045 10.735,21.68 L11.08,20.847 C12.352,21.579 13.658,21.957 14.998,21.984 L14.998,15.793 C14.037,15.549 13.269,15.272 12.694,14.96 C12.118,14.649 11.699,14.27 11.435,13.823 C11.171,13.377 11.04,12.808 11.04,12.118 C11.04,11.441 11.212,10.836 11.557,10.301 C11.902,9.767 12.376,9.344 12.978,9.032 C13.58,8.721 14.26,8.545 15.018,8.504 L15.018,6.637 L15.891,6.637 L15.891,8.504 C17.123,8.559 18.32,8.91 19.485,9.56 L19.14,10.393 C18.016,9.797 16.933,9.472 15.891,9.418 L15.891,15.062 C17.38,15.454 18.436,15.952 19.058,16.554 C19.681,17.156 19.992,17.958 19.992,18.96 C19.992,19.69 19.823,20.337 19.485,20.898 C19.146,21.46 18.666,21.91 18.043,22.248 C17.42,22.587 16.696,22.789 15.871,22.857 L15.871,24.989 L14.998,24.989 Z M16.406,30.999 C24.449,30.466 30.75,23.728 30.75,15.658 C30.75,7.181 23.853,0.283 15.375,0.283 C8.29,0.283 2.153,5.079 0.45,11.946 C0.151,13.153 0,14.402 0,15.658 C0,17.529 0.331,19.354 0.984,21.083 C2.057,23.93 3.937,26.377 6.422,28.159 C6.59,28.28 6.824,28.241 6.945,28.073 C7.066,27.905 7.027,27.671 6.859,27.55 C4.495,25.854 2.706,23.526 1.685,20.818 C1.064,19.174 0.75,17.438 0.75,15.658 C0.75,14.463 0.894,13.275 1.178,12.127 C2.797,5.595 8.635,1.033 15.375,1.033 C23.439,1.033 30,7.594 30,15.658 C30,23.334 24.007,29.744 16.357,30.251 C16.15,30.265 15.994,30.443 16.007,30.65 C16.021,30.848 16.185,31 16.381,31 C16.389,31 16.398,31 16.406,30.999 Z" id="Page-1"></path>
        </g>
    </g>
</svg>