<?xml version="1.0" encoding="UTF-8"?>
<svg width="31px" height="31px" viewBox="0 0 31 31" version="1.1" xmlns="http://www.w3.org/2000/svg" xmlns:xlink="http://www.w3.org/1999/xlink">
    <!-- Generator: Sketch 50.2 (55047) - http://www.bohemiancoding.com/sketch -->
    <title>Page 1</title>
    <desc>Created with Sketch.</desc>
    <defs></defs>
    <g id="Symbols" stroke="none" stroke-width="1" fill="none" fill-rule="evenodd">
        <g id="Icono-/-ilustrativo-/-consumos-Copy" transform="translate(-4.000000, -5.000000)" fill="#009FDB">
            <path d="M22.977,24 C22.977,23.229 22.747,22.626 22.287,22.193 C21.827,21.76 21.021,21.375 19.871,21.036 L19.871,26.944 C20.859,26.849 21.624,26.545 22.165,26.03 C22.706,25.516 22.977,24.839 22.977,24 L22.977,24 Z M16.034,17.037 C16.034,17.768 16.25,18.336 16.684,18.742 C17.117,19.148 17.895,19.507 19.018,19.818 L19.018,14.418 C18.084,14.486 17.354,14.753 16.826,15.22 C16.298,15.687 16.034,16.293 16.034,17.037 L16.034,17.037 Z M18.998,29.989 L18.998,27.898 C18.267,27.884 17.513,27.769 16.735,27.553 C15.956,27.336 15.29,27.045 14.735,26.68 L15.08,25.847 C16.352,26.579 17.658,26.957 18.998,26.984 L18.998,20.793 C18.037,20.549 17.269,20.272 16.694,19.96 C16.118,19.649 15.699,19.27 15.435,18.823 C15.171,18.377 15.04,17.808 15.04,17.118 C15.04,16.441 15.212,15.836 15.557,15.301 C15.902,14.767 16.376,14.344 16.978,14.032 C17.58,13.721 18.26,13.545 19.018,13.504 L19.018,11.637 L19.891,11.637 L19.891,13.504 C21.123,13.559 22.32,13.91 23.485,14.56 L23.14,15.393 C22.016,14.797 20.933,14.472 19.891,14.418 L19.891,20.062 C21.38,20.454 22.436,20.952 23.058,21.554 C23.681,22.156 23.992,22.958 23.992,23.96 C23.992,24.69 23.823,25.337 23.485,25.898 C23.146,26.46 22.666,26.91 22.043,27.248 C21.42,27.587 20.696,27.789 19.871,27.857 L19.871,29.989 L18.998,29.989 Z M20.406,35.999 C28.449,35.466 34.75,28.728 34.75,20.658 C34.75,12.181 27.853,5.283 19.375,5.283 C12.29,5.283 6.153,10.079 4.45,16.946 C4.151,18.153 4,19.402 4,20.658 C4,22.529 4.331,24.354 4.984,26.083 C6.057,28.93 7.937,31.377 10.422,33.159 C10.59,33.28 10.824,33.241 10.945,33.073 C11.066,32.905 11.027,32.671 10.859,32.55 C8.495,30.854 6.706,28.526 5.685,25.818 C5.064,24.174 4.75,22.438 4.75,20.658 C4.75,19.463 4.894,18.275 5.178,17.127 C6.797,10.595 12.635,6.033 19.375,6.033 C27.439,6.033 34,12.594 34,20.658 C34,28.334 28.007,34.744 20.357,35.251 C20.15,35.265 19.994,35.443 20.007,35.65 C20.021,35.848 20.185,36 20.381,36 C20.389,36 20.398,36 20.406,35.999 L20.406,35.999 Z" id="Page-1"></path>
        </g>
    </g>
</svg>