<?xml version="1.0" encoding="UTF-8"?>
<svg width="16px" height="16px" viewBox="0 0 16 16" version="1.1" xmlns="http://www.w3.org/2000/svg" xmlns:xlink="http://www.w3.org/1999/xlink">
    <!-- Generator: Sketch 50.2 (55047) - http://www.bohemiancoding.com/sketch -->
    <title>costs bold_yellow</title>
    <desc>Created with Sketch.</desc>
    <defs></defs>
    <g id="Symbols" stroke="none" stroke-width="1" fill="none" fill-rule="evenodd">
        <g id="Icono-/-Funcional--/-descripción-Copy-3" transform="translate(-2.000000, -3.000000)" fill="#FFC600">
            <g id="Group" transform="translate(2.000000, 3.000000)">
                <path d="M8.92611111,12.5039438 C7.18888889,12.5039438 5.78,11.0956104 5.78,9.35783266 C5.78,7.62061044 7.18888889,6.21172155 8.92611111,6.21172155 C10.6638889,6.21172155 12.0722222,7.62061044 12.0722222,9.35783266 C12.0722222,11.0956104 10.6638889,12.5039438 8.92611111,12.5039438 L8.92611111,12.5039438 Z M4.16277778,4.54838822 C3.58888889,5.12338822 2.65777778,5.12338822 2.08111111,4.54838822 C1.50666667,3.97283266 1.50666667,3.0422771 2.08111111,2.46616599 C2.65777778,1.89172155 3.58888889,1.89172155 4.16277778,2.46616599 C4.73833333,3.0422771 4.73833333,3.97283266 4.16277778,4.54838822 L4.16277778,4.54838822 Z M15.0933333,9.23394377 C14.0527778,8.19172155 6.44611111,0.586165994 6.44611111,0.586165994 C6.335,0.475610438 6.11833333,0.385054883 5.96,0.385054883 L0.285,0.385054883 C0.127777778,0.385054883 0,0.513388216 0,0.670054883 L0,6.34561044 C0,6.5022771 0.0905555556,6.72116599 0.201666667,6.83116599 L8.64666667,15.2772771 C8.75833333,15.3883882 8.93888889,15.5694993 9.05055556,15.6800549 C9.05055556,15.6800549 9.88944444,16.5194993 10.9305556,15.4789438 C11.9716667,14.4378327 14.8916667,11.5167215 14.8916667,11.5167215 C15.0038889,11.4056104 15.185,11.2250549 15.2966667,11.1144993 C15.2966667,11.1144993 16.1344444,10.2744993 15.0933333,9.23394377 L15.0933333,9.23394377 Z M9.17833333,10.4839438 L9.17833333,9.75616599 C9.31388889,9.80561044 9.40833333,9.85783266 9.46333333,9.9122771 C9.51777778,9.96672155 9.54444444,10.0333882 9.54444444,10.1128327 C9.54444444,10.3072771 9.42222222,10.431166 9.17833333,10.4839438 L9.17833333,10.4839438 Z M8.72777778,8.91005488 C8.59,8.86394377 8.49444444,8.81449933 8.44111111,8.76172155 C8.38833333,8.70894377 8.36222222,8.63449933 8.36222222,8.53894377 C8.36222222,8.35449933 8.48388889,8.24394377 8.72777778,8.2072771 L8.72777778,8.91005488 Z M10.1111111,9.61283266 C10.0405556,9.48394377 9.93111111,9.37449933 9.78222222,9.28338822 C9.63388889,9.19283266 9.43611111,9.11283266 9.18888889,9.04394377 L9.18888889,8.19783266 C9.40611111,8.21449933 9.63888889,8.28005488 9.88611111,8.39561044 L10.0544444,7.86116599 C9.92888889,7.79172155 9.79222222,7.73394377 9.64388889,7.68783266 C9.49555556,7.64172155 9.34388889,7.6122771 9.18888889,7.59894377 L9.18888889,7.11394377 L8.72777778,7.11394377 L8.72777778,7.60894377 C8.40444444,7.64838822 8.15111111,7.75561044 7.96611111,7.93061044 C7.78111111,8.10505488 7.68888889,8.32783266 7.68888889,8.59838822 C7.68888889,8.77672155 7.72166667,8.92561044 7.78833333,9.04616599 C7.85388889,9.16672155 7.95944444,9.27061044 8.10444444,9.35783266 C8.24944444,9.44561044 8.45444444,9.52838822 8.71833333,9.60783266 L8.71833333,10.5033882 C8.38222222,10.4839438 8.08,10.4028327 7.81277778,10.261166 L7.63444444,10.8006104 C7.76666667,10.886166 7.92722222,10.956166 8.11722222,11.0106104 C8.30666667,11.0650549 8.50722222,11.0972771 8.71833333,11.1072771 L8.71833333,11.6017215 L9.17833333,11.6017215 L9.17833333,11.0872771 C9.50166667,11.0444993 9.75611111,10.9339438 9.94055556,10.7556104 C10.125,10.5778327 10.2177778,10.3500549 10.2177778,10.0728327 C10.2177778,9.89505488 10.1822222,9.74172155 10.1111111,9.61283266 L10.1111111,9.61283266 Z" id="costs-bold"></path>
            </g>
        </g>
    </g>
</svg>